<?xml version="1.0" standalone="no"?><!DOCTYPE svg PUBLIC "-//W3C//DTD SVG 1.1//EN" "http://www.w3.org/Graphics/SVG/1.1/DTD/svg11.dtd"><svg t="1504948269615" class="icon" style="" viewBox="0 0 1024 1024" version="1.1" xmlns="http://www.w3.org/2000/svg" p-id="3002" xmlns:xlink="http://www.w3.org/1999/xlink" width="128" height="128"><defs><style type="text/css"></style></defs><path d="M127.56992 275.68128c-11.18208 0-20.76672-9.58464-20.76672-20.7872 0-11.96032 9.58464-21.54496 20.76672-21.54496l776.84736 0c11.1616 0 20.74624 9.58464 20.74624 21.54496 0 11.20256-9.58464 20.7872-20.74624 20.7872L127.56992 275.68128z" p-id="3003" fill="#ffffff"></path><path d="M127.56992 532.76672c-11.18208 0-20.76672-8.78592-20.76672-20.76672s9.58464-20.76672 20.76672-20.76672l776.84736 0c11.1616 0 20.74624 8.78592 20.74624 20.76672s-9.58464 20.76672-20.74624 20.76672L127.56992 532.76672z" p-id="3004" fill="#ffffff"></path><path d="M120.38144 790.6304c-11.96032 0-21.54496-9.58464-21.54496-21.56544 0-11.20256 9.58464-20.7872 21.54496-20.7872l776.06912 0c11.96032 0 20.74624 9.58464 20.74624 20.7872 0 11.9808-8.78592 21.56544-20.74624 21.56544L120.38144 790.6304z" p-id="3005" fill="#ffffff"></path></svg>