<?xml version="1.0" standalone="no"?><!DOCTYPE svg PUBLIC "-//W3C//DTD SVG 1.1//EN" "http://www.w3.org/Graphics/SVG/1.1/DTD/svg11.dtd"><svg t="1505090478906" class="icon" style="" viewBox="0 0 1024 1024" version="1.1" xmlns="http://www.w3.org/2000/svg" p-id="2500" xmlns:xlink="http://www.w3.org/1999/xlink" width="200" height="200"><defs><style type="text/css"></style></defs><path d="M512.001023 471.041146c113.188922 0 205.276247-92.086301 205.276247-205.276247s-92.086301-205.276247-205.276247-205.276247-205.276247 92.086301-205.276247 205.276247S398.811078 471.041146 512.001023 471.041146zM512.001023 132.12111c73.691349 0 133.644813 59.95244 133.644813 133.644813s-59.95244 133.644813-133.644813 133.644813c-73.692373 0-133.644813-59.95244-133.644813-133.644813S438.308651 132.12111 512.001023 132.12111z" p-id="2501" fill="#999999"></path><path d="M873.826745 670.415986c-1.479701-4.564969-16.022928-45.729507-70.353324-84.901669-30.315446-21.856797-67.484997-39.144532-110.474091-51.383274-51.91437-14.777565-112.811322-22.271236-180.997284-22.271236-69.672826 0-131.487683 7.486508-183.725418 22.25384-43.389206 12.265348-80.558757 29.619598-110.476137 51.580772-54.044894 39.673581-66.813708 81.626066-68.091818 86.278016l-1.279133 4.657067 0 144.413064 727.141942 0 0-145.243989L873.826745 670.415986zM803.940049 749.411131l-583.879074 0 0-61.394279c3.373841-6.987135 14.108323-25.478278 40.125883-44.578288 37.255509-27.347858 111.184265-59.947324 251.813143-59.947324 132.566248 0 205.912743 30.621415 244.097414 56.30947 30.488385 20.510126 43.37488 40.583301 47.841611 49.140187L803.939025 749.411131z" p-id="2502" fill="#999999"></path></svg>